# xmcd
#
# Track frame offsets:
#	150
#	13310
#	28082
#	39582
#	51489
#	65895
#	78942
#	93643
#	107973
#	120991
#	133851
#	146537
#	159058
#	171321
#	184236
#	198349
#	213308
#	227085
#	240288
#	254272
#	265539
#	277489
#	290559
#
# Disc length: 4059 seconds
#
# Revision: 1
# Processed by: cddbd v1.5.1PL0 Copyright (c) Steve Scherf et al.
# Submitted via: audiograbber 1.83.01
#
DISCID=5a0fd917
DTITLE=Female Blues Singers - Complete Recorded Works - 1997 - Vol 8: H1 (1923-
DTITLE=1928) DOCD-5512
DYEAR=1997
DGENRE=Blues
TTITLE0=I'm Through With You As I Can Be
TTITLE1=2 A.M. Blues
TTITLE2=Four O'Clock Blues
TTITLE3=Sugar Blues (Lillian Harris)
TTITLE4=Baby, Won't You Please Come Home (Take 1)
TTITLE5=Baby, Won't You Please Come Home (Take 3)
TTITLE6=Mama's Got The Blues (Take 1)
TTITLE7=Mama's Got The Blues (Take 3)
TTITLE8=Down Hearted Blues
TTITLE9=Gulf Coast Blues (Take 4)
TTITLE10=Gulf Coast Blues (Take 5)
TTITLE11=Sugar Blues (Sister Harris)
TTITLE12=Don't Mess With Me
TTITLE13=The Cootie Crawl
TTITLE14=You Can Have My Man (If He Comes To See You Too)
TTITLE15=Laughin' Cryin' Blues
TTITLE16=Voo-Doo
TTITLE17=Beale Street Mama
TTITLE18=Don't Make A Dog Out Of Me
TTITLE19=Red Lips, Kiss My Blues Away
TTITLE20=Whee The Wild, Wild Flowers Grow
TTITLE21=Park No More Mama Blues
TTITLE22=Beating Blues
EXTD=Document Records, Austria
EXTT0=
EXTT1=
EXTT2=
EXTT3=
EXTT4=
EXTT5=
EXTT6=
EXTT7=
EXTT8=
EXTT9=
EXTT10=
EXTT11=
EXTT12=
EXTT13=
EXTT14=
EXTT15=
EXTT16=
EXTT17=
EXTT18=
EXTT19=
EXTT20=
EXTT21=
EXTT22=
PLAYORDER=
